<svg xmlns="http://www.w3.org/2000/svg" xmlns:xlink="http://www.w3.org/1999/xlink" version="1.1" x="0px" y="0px" viewBox="0 0 95 95" enable-background="new 0 0 95 95" xml:space="preserve"><g><g><path d="M72.09,11.816c-2.586-1.045-5.439-1.558-8.556-1.525c-1.83,0.024-3.751,0.238-5.752,0.628    c-2.013,0.394-3.982,0.883-5.906,1.471l-3.199,1.145l3.309-0.856c3.325-0.594,6.603-0.512,9.85,0.258    c2.873,0.682,5.546,1.845,8.05,3.508c1.5,0.986,2.883,1.995,4.155,3.026l-1.45-7.435c-0.041-0.019-0.08-0.037-0.122-0.055    C72.342,11.926,72.219,11.869,72.09,11.816z"></path><path d="M72.63,11.884c2.732,0.561,5.393,1.712,7.971,3.461c1.512,1.032,2.995,2.272,4.446,3.706    c1.46,1.44,2.83,2.939,4.106,4.493l2.033,2.721l-2.284-2.541c-2.44-2.334-5.219-4.08-8.349-5.234    c-2.772-1.02-5.643-1.53-8.646-1.528c-1.794-0.008-3.506,0.068-5.137,0.224l5.319-5.393c0.044,0.008,0.088,0.014,0.134,0.021    C72.36,11.838,72.493,11.858,72.63,11.884z"></path></g><g><path d="M42.535,41.697c-3.544-3.395-7.871-6.094-12.984-8.073c-3.005-1.157-6.282-2.059-9.807-2.727    c-3.544-0.673-7.082-1.156-10.608-1.448l-5.975-0.218l5.964,0.762c5.82,1.198,11.122,3.469,15.926,6.846    c4.248,2.989,7.856,6.63,10.861,10.979c1.806,2.591,3.407,5.142,4.814,7.656l2.481-13.088c-0.057-0.058-0.107-0.117-0.165-0.174    C42.873,42.041,42.711,41.867,42.535,41.697z"></path><path d="M37.862,41.043c4.587-1.744,9.625-2.541,15.102-2.369c3.219,0.107,6.589,0.556,10.095,1.313    c3.526,0.764,6.973,1.698,10.334,2.804l5.586,2.13l-5.79-1.625c-5.824-1.167-11.595-1.141-17.331,0.094    c-5.078,1.094-9.824,3.041-14.286,5.876c-2.674,1.678-5.143,3.404-7.418,5.17l2.819-13.02c0.074-0.033,0.144-0.068,0.218-0.097    C37.417,41.228,37.633,41.131,37.862,41.043z"></path></g><g><path d="M58.893,73.233c-3.285-1.061-6.58-1.856-9.908-2.137c-3.178-0.268-6.52-0.11-9.644,0.494    c-3.557,0.688-7.126,1.976-10.419,3.81c-0.187-0.006-0.373-0.014-0.563-0.014c-0.012,0.008-0.026,0.017-0.04,0.026    c-0.642,0.003-1.303,0.034-1.981,0.11c-2.078,0.231-4.14,0.734-6.13,1.385c-2.128,0.696-4.224,1.515-6.27,2.433    c-1.352,0.648-2.018,0.974-3.334,1.625c1.344-0.589,2.021-0.878,3.396-1.443c3.358-1.056,6.455-1.723,9.832-1.405    c1.306,0.121,2.605,0.55,3.746,1.1c0.001,0.028,0.001,0.045,0.001,0.074c0.047,2.091,0.067,3.145,0.092,5.264    c0.88-0.948,1.871-1.933,2.981-2.96c0.997,1.039,1.842,2.177,2.541,3.38c0.419-2.108,0.636-3.171,1.08-5.308    c2.498-1.769,5.225-3.212,7.979-4.26c5.222-1.988,10.613-2.489,16.342-1.594c2.176,0.666,3.254,1.043,5.387,1.886    C61.987,74.617,60.967,74.124,58.893,73.233z"></path></g></g></svg>